<svg xmlns="http://www.w3.org/2000/svg" version="1.1" xmlns:xlink="http://www.w3.org/1999/xlink" preserveAspectRatio="none" x="0px" y="0px" width="24px" height="24px" viewBox="0 0 24 24">
<defs>
<g id="Layer1_0_FILL">
<path fill="#000000" fill-opacity="0.4470588235294118" stroke="none" d="
M 12.1 1.55
Q 11.5154296875 1.499609375 10.95 2.15
L 7.3 6.1
Q 6.687109375 6.5625 6.7 7.2 6.725 8.7751953125 8.3 8.75
L 9.25 8.75
Q 9.610546875 12.2560546875 9.25 15.3
L 8.1 15.25
Q 7.15390625 15.2716796875 6.8 16 6.6763671875 16.266796875 6.65 16.65 6.6126953125 17.1671875 7.2 17.85
L 10.95 21.9
Q 11.4412109375 22.651953125 12.1 22.55 12.6091796875 22.6447265625 13.2 22.05
L 13.2 22.05 17.05 17.9
Q 17.5587890625 17.4689453125 17.5 16.9 17.525 15.3248046875 15.95 15.3
L 14.8 15.3
Q 14.5283203125 12.1216796875 14.85 8.8
L 16.15 8.8
Q 17.1984375 8.8287109375 17.45 7.9 17.5236328125 7.751171875 17.5 7.6 17.525 7.55 17.5 7.45 17.5474609375 6.84453125 17.05 6.25
L 13.2 2.2
Q 12.755078125 1.4982421875 12.1 1.55 Z"/>
</g>

<g id="Layer0_0_FILL">
<path fill="#FFFFFF" stroke="none" d="
M 16.35 6.85
L 12.45 2.75
Q 12.3 2.5 12.1 2.5 11.9 2.5 11.7 2.75
L 7.85 6.85
Q 7.65 7 7.65 7.2 7.65 7.85 8.3 7.85
L 10.1 7.85
Q 10.65 12.4 10.1 16.25
L 8.1 16.2
Q 7.75 16.2 7.65 16.5 7.6 16.55 7.6 16.65 7.6 16.9 7.9 17.25
L 11.75 21.4
Q 11.9 21.65 12.1 21.65 12.3 21.65 12.55 21.4
L 16.4 17.25
Q 16.6 17.1 16.6 16.9 16.6 16.25 15.95 16.25
L 14 16.25
Q 13.5 12.15 14 7.9
L 16.15 7.9
Q 16.5 7.9 16.6 7.6 16.6 7.55 16.6 7.45 16.6 7.15 16.35 6.85 Z"/>
</g>
</defs>

<g id="Layer_3">
<g transform="matrix( 1, 0, 0, 1, 0,0) ">
<use xlink:href="#Layer1_0_FILL"/>
</g>
</g>

<g id="async_svg">
<g transform="matrix( 1, 0, 0, 1, 0,0) ">
<use xlink:href="#Layer0_0_FILL"/>
</g>
</g>
</svg>
